<svg xmlns="http://www.w3.org/2000/svg" viewBox="0 0 64 64" role="img" aria-label="Hango">
  <defs>
    <linearGradient id="bg" x1="32" y1="0" x2="32" y2="64" gradientUnits="userSpaceOnUse">
      <stop stop-color="#3A2E26"/>
      <stop offset="1" stop-color="#14110F"/>
    </linearGradient>
    <linearGradient id="b1" x1="20" y1="14" x2="28" y2="42" gradientUnits="userSpaceOnUse">
      <stop stop-color="#F8F3EA"/>
      <stop offset="1" stop-color="#E5D9C8"/>
    </linearGradient>
    <linearGradient id="b2" x1="34" y1="18" x2="44" y2="44" gradientUnits="userSpaceOnUse">
      <stop stop-color="#FFFBF4"/>
      <stop offset="1" stop-color="#EDE4D6"/>
    </linearGradient>
    <radialGradient id="glow" cx="32" cy="28" r="22" gradientUnits="userSpaceOnUse">
      <stop stop-color="#E0A86A" stop-opacity="0.35"/>
      <stop offset="1" stop-color="#E0A86A" stop-opacity="0"/>
    </radialGradient>
  </defs>
  <rect width="64" height="64" rx="14" fill="url(#bg)"/>
  <circle cx="32" cy="30" r="20" fill="url(#glow)"/>
  <path d="M16.5 22.5c0-4.1 3.3-7.4 7.4-7.4h9.8c4.1 0 7.4 3.3 7.4 7.4v8.4c0 4.1-3.3 7.4-7.4 7.4H28.2l-6.2 4.7c-.75.55-1.8.05-1.8-.9v-3.7c-2.1-.85-3.7-2.95-3.7-5.4v-10.5Z" fill="url(#b1)"/>
  <path d="M28.5 26.8c0-3.6 2.9-6.5 6.5-6.5H43c3.6 0 6.5 2.9 6.5 6.5v7.6c0 3.6-2.9 6.5-6.5 6.5h-4.8l-5 3.8c-.65.5-1.6.05-1.6-.85v-2.95c-1.8-.75-3.1-2.55-3.1-4.6v-9.5Z" fill="url(#b2)"/>
  <circle cx="32.5" cy="47.5" r="3.6" fill="#E0A86A"/>
  <circle cx="32.5" cy="46.6" r="1.4" fill="#F3D4A8" opacity="0.7"/>
</svg>
